{
  "accessors": [
    {
      "bufferView": 2,
      "componentType": 5126,
      "count": 22221,
      "max": [
        2.7355997562408447,
        3.8765509128570557,
        0.46915069222450256
      ],
      "min": [
        -4.048240661621094,
        -3.3359053134918213,
        0.2808595895767212
      ],
      "type": "VEC3"
    },
    {
      "bufferView": 2,
      "byteOffset": 266652,
      "componentType": 5126,
      "count": 22221,
      "max": [
        0.9999670386314392,
        0.9999839067459106,
        1.0
      ],
      "min": [
        -0.9999945163726807,
        -0.9999939203262329,
        -1.0
      ],
      "type": "VEC3"
    },
    {
      "bufferView": 1,
      "componentType": 5126,
      "count": 22221,
      "max": [
        0.0,
        0.0
      ],
      "min": [
        0.0,
        0.0
      ],
      "type": "VEC2"
    },
    {
      "bufferView": 0,
      "componentType": 5125,
      "count": 57957,
      "type": "SCALAR"
    },
    {
      "bufferView": 2,
      "byteOffset": 533304,
      "componentType": 5126,
      "count": 9206,
      "max": [
        6.398428440093994,
        5.93496036529541,
        0.4687807559967041
      ],
      "min": [
        -6.469529628753662,
        -5.565936088562012,
        0.28085950016975403
      ],
      "type": "VEC3"
    },
    {
      "bufferView": 2,
      "byteOffset": 643776,
      "componentType": 5126,
      "count": 9206,
      "max": [
        0.9914666414260864,
        0.9914636015892029,
        0.9927865266799927
      ],
      "min": [
        -0.9914696216583252,
        -0.9914354085922241,
        -0.9927841424942017
      ],
      "type": "VEC3"
    },
    {
      "bufferView": 1,
      "byteOffset": 177768,
      "componentType": 5126,
      "count": 9206,
      "max": [
        0.999483585357666,
        0.9409995079040527
      ],
      "min": [
        0.0005162060260772705,
        0.0005164146423339844
      ],
      "type": "VEC2"
    },
    {
      "bufferView": 0,
      "byteOffset": 231828,
      "componentType": 5125,
      "count": 43476,
      "type": "SCALAR"
    },
    {
      "bufferView": 2,
      "byteOffset": 754248,
      "componentType": 5126,
      "count": 36927,
      "max": [
        6.2012810707092285,
        5.471064567565918,
        0.28489843010902405
      ],
      "min": [
        -5.83669376373291,
        -5.0904717445373535,
        0.2763462960720062
      ],
      "type": "VEC3"
    },
    {
      "bufferView": 2,
      "byteOffset": 1197372,
      "componentType": 5126,
      "count": 36927,
      "max": [
        0.9999995827674866,
        0.9999919533729553,
        1.0
      ],
      "min": [
        -0.9999996423721313,
        -0.9999919533729553,
        -1.0
      ],
      "type": "VEC3"
    },
    {
      "bufferView": 1,
      "byteOffset": 251416,
      "componentType": 5126,
      "count": 36927,
      "max": [
        1.0,
        0.9996962547302246
      ],
      "min": [
        0.0002666306390892714,
        0.0003039588627871126
      ],
      "type": "VEC2"
    },
    {
      "bufferView": 0,
      "byteOffset": 405732,
      "componentType": 5125,
      "count": 51297,
      "type": "SCALAR"
    },
    {
      "bufferView": 2,
      "byteOffset": 1640496,
      "componentType": 5126,
      "count": 1282,
      "max": [
        11.971108436584473,
        11.971108436584473,
        0.27901384234428406
      ],
      "min": [
        -11.971108436584473,
        -11.971108436584473,
        0.27901384234428406
      ],
      "type": "VEC3"
    },
    {
      "bufferView": 2,
      "byteOffset": 1655880,
      "componentType": 5126,
      "count": 1282,
      "max": [
        2.923976535385009e-05,
        0.0,
        1.0
      ],
      "min": [
        -1.9982415324193425e-05,
        0.0,
        1.0
      ],
      "type": "VEC3"
    },
    {
      "bufferView": 1,
      "byteOffset": 546832,
      "componentType": 5126,
      "count": 1282,
      "max": [
        0.9996848106384277,
        0.8058242797851563
      ],
      "min": [
        0.00031566619873046875,
        0.0003151893615722656
      ],
      "type": "VEC2"
    },
    {
      "bufferView": 0,
      "byteOffset": 610920,
      "componentType": 5125,
      "count": 1695,
      "type": "SCALAR"
    },
    {
      "bufferView": 2,
      "byteOffset": 1671264,
      "componentType": 5126,
      "count": 1344,
      "max": [
        4.566702842712402,
        1.2530821561813354,
        1.3351194858551025
      ],
      "min": [
        2.9619503021240234,
        1.1178547143936157,
        0.29116761684417725
      ],
      "type": "VEC3"
    },
    {
      "bufferView": 2,
      "byteOffset": 1687392,
      "componentType": 5126,
      "count": 1344,
      "max": [
        0.976647675037384,
        0.9755261540412903,
        0.972221314907074
      ],
      "min": [
        -0.9764981865882874,
        -0.9755986332893372,
        -0.9716360569000244
      ],
      "type": "VEC3"
    },
    {
      "bufferView": 1,
      "byteOffset": 557088,
      "componentType": 5126,
      "count": 1344,
      "max": [
        0.9993817806243896,
        0.9937121868133545
      ],
      "min": [
        0.0006181001663208008,
        0.00061798095703125
      ],
      "type": "VEC2"
    },
    {
      "bufferView": 0,
      "byteOffset": 617700,
      "componentType": 5125,
      "count": 5868,
      "type": "SCALAR"
    }
  ],
  "asset": {
    "extras": {
      "author": "isimp4aerith (https://sketchfab.com/isimp4aerith)",
      "license": "CC-BY-4.0 (http://creativecommons.org/licenses/by/4.0/)",
      "source": "https://sketchfab.com/3d-models/mini-race-track-2123a7c1b4fc4892a7f45e67964cabce",
      "title": "Mini Race Track"
    },
    "generator": "Sketchfab-12.78.0",
    "version": "2.0"
  },
  "bufferViews": [
    {
      "buffer": 0,
      "byteLength": 641172,
      "name": "floatBufferViews",
      "target": 34963
    },
    {
      "buffer": 0,
      "byteLength": 567840,
      "byteOffset": 641172,
      "byteStride": 8,
      "name": "floatBufferViews",
      "target": 34962
    },
    {
      "buffer": 0,
      "byteLength": 1703520,
      "byteOffset": 1209012,
      "byteStride": 12,
      "name": "floatBufferViews",
      "target": 34962
    }
  ],
  "buffers": [
    {
      "byteLength": 2912532,
      "uri": "scene.bin"
    }
  ],
  "images": [
    {
      "uri": "textures/barrier_baseColor.png"
    },
    {
      "uri": "textures/track_full_baseColor.png"
    },
    {
      "uri": "textures/track_full_metallicRoughness.png"
    },
    {
      "uri": "textures/grass_baseColor.png"
    }
  ],
  "materials": [
    {
      "doubleSided": true,
      "name": "railing",
      "pbrMetallicRoughness": {
        "baseColorFactor": [
          0.538225,
          0.538225,
          0.538225,
          1.0
        ],
        "metallicFactor": 0.0,
        "roughnessFactor": 0.8681623383190524
      }
    },
    {
      "doubleSided": true,
      "name": "barrier",
      "pbrMetallicRoughness": {
        "baseColorTexture": {
          "index": 0
        },
        "metallicFactor": 0.0,
        "roughnessFactor": 0.9141316673728901
      }
    },
    {
      "doubleSided": true,
      "name": "track_full",
      "pbrMetallicRoughness": {
        "baseColorTexture": {
          "index": 1
        },
        "metallicFactor": 0.0,
        "metallicRoughnessTexture": {
          "index": 2
        }
      }
    },
    {
      "doubleSided": true,
      "name": "grass",
      "pbrMetallicRoughness": {
        "baseColorTexture": {
          "index": 3
        },
        "metallicFactor": 0.0,
        "roughnessFactor": 0.8040408205773457
      }
    }
  ],
  "meshes": [
    {
      "name": "railing_railing_0",
      "primitives": [
        {
          "attributes": {
            "NORMAL": 1,
            "POSITION": 0,
            "TEXCOORD_0": 2
          },
          "indices": 3,
          "material": 0,
          "mode": 4
        }
      ]
    },
    {
      "name": "barrier_barrier_0",
      "primitives": [
        {
          "attributes": {
            "NORMAL": 5,
            "POSITION": 4,
            "TEXCOORD_0": 6
          },
          "indices": 7,
          "material": 1,
          "mode": 4
        }
      ]
    },
    {
      "name": "track_track_full_0",
      "primitives": [
        {
          "attributes": {
            "NORMAL": 9,
            "POSITION": 8,
            "TEXCOORD_0": 10
          },
          "indices": 11,
          "material": 2,
          "mode": 4
        }
      ]
    },
    {
      "name": "grass_grass_0",
      "primitives": [
        {
          "attributes": {
            "NORMAL": 13,
            "POSITION": 12,
            "TEXCOORD_0": 14
          },
          "indices": 15,
          "material": 3,
          "mode": 4
        }
      ]
    },
    {
      "name": "arch_barrier_0",
      "primitives": [
        {
          "attributes": {
            "NORMAL": 17,
            "POSITION": 16,
            "TEXCOORD_0": 18
          },
          "indices": 19,
          "material": 1,
          "mode": 4
        }
      ]
    }
  ],
  "nodes": [
    {
      "children": [
        1
      ],
      "matrix": [
        1.0,
        0.0,
        0.0,
        0.0,
        0.0,
        2.220446049250313e-16,
        -1.0,
        0.0,
        0.0,
        1.0,
        2.220446049250313e-16,
        0.0,
        0.0,
        0.0,
        0.0,
        1.0
      ],
      "name": "Sketchfab_model"
    },
    {
      "children": [
        2
      ],
      "matrix": [
        0.009999999776482582,
        0.0,
        0.0,
        0.0,
        0.0,
        0.0,
        0.009999999776482582,
        0.0,
        0.0,
        -0.009999999776482582,
        0.0,
        0.0,
        0.0,
        0.0,
        0.0,
        1.0
      ],
      "name": "Mini_Race_Track.fbx"
    },
    {
      "children": [
        3,
        5,
        7,
        9,
        11
      ],
      "name": "RootNode"
    },
    {
      "children": [
        4
      ],
      "matrix": [
        100.0,
        0.0,
        0.0,
        0.0,
        0.0,
        -1.629206793918314e-05,
        -99.99999999999868,
        0.0,
        0.0,
        99.99999999999868,
        -1.629206793918314e-05,
        0.0,
        0.0,
        0.0,
        0.0,
        1.0
      ],
      "name": "railing"
    },
    {
      "mesh": 0,
      "name": "railing_railing_0"
    },
    {
      "children": [
        6
      ],
      "matrix": [
        100.0,
        0.0,
        0.0,
        0.0,
        0.0,
        -1.629206793918314e-05,
        -99.99999999999868,
        0.0,
        0.0,
        99.99999999999868,
        -1.629206793918314e-05,
        0.0,
        0.0,
        0.0,
        0.0,
        1.0
      ],
      "name": "barrier"
    },
    {
      "mesh": 1,
      "name": "barrier_barrier_0"
    },
    {
      "children": [
        8
      ],
      "matrix": [
        100.0,
        0.0,
        0.0,
        0.0,
        0.0,
        -1.629206793918314e-05,
        -99.99999999999868,
        0.0,
        0.0,
        99.99999999999868,
        -1.629206793918314e-05,
        0.0,
        0.0,
        0.0,
        0.0,
        1.0
      ],
      "name": "track"
    },
    {
      "mesh": 2,
      "name": "track_track_full_0"
    },
    {
      "children": [
        10
      ],
      "matrix": [
        100.0,
        0.0,
        0.0,
        0.0,
        0.0,
        -1.629206793918314e-05,
        -99.99999999999868,
        0.0,
        0.0,
        99.99999999999868,
        -1.629206793918314e-05,
        0.0,
        0.0,
        0.0,
        0.0,
        1.0
      ],
      "name": "grass"
    },
    {
      "mesh": 3,
      "name": "grass_grass_0"
    },
    {
      "children": [
        12
      ],
      "matrix": [
        100.0,
        0.0,
        0.0,
        0.0,
        0.0,
        -1.629206793918314e-05,
        -99.99999999999868,
        0.0,
        0.0,
        99.99999999999868,
        -1.629206793918314e-05,
        0.0,
        0.0,
        -3.8936614990234375,
        0.0,
        1.0
      ],
      "name": "arch"
    },
    {
      "mesh": 4,
      "name": "arch_barrier_0"
    }
  ],
  "samplers": [
    {
      "magFilter": 9729,
      "minFilter": 9987,
      "wrapS": 10497,
      "wrapT": 10497
    }
  ],
  "scene": 0,
  "scenes": [
    {
      "name": "Sketchfab_Scene",
      "nodes": [
        0
      ]
    }
  ],
  "textures": [
    {
      "sampler": 0,
      "source": 0
    },
    {
      "sampler": 0,
      "source": 1
    },
    {
      "sampler": 0,
      "source": 2
    },
    {
      "sampler": 0,
      "source": 3
    }
  ]
}
